Description
Format : MPEG-4
Format profile : Base Media / Version 2
Codec ID : mp42
File size : 1.50 GiB
Duration : 1h 52mn
Overall bit rate mode : Variable
Overall bit rate : 1 904 Kbps
Encoded date : UTC 2013-04-11 20:01:50
Tagged date : UTC 2013-04-11 22:20:46

Video
ID : 1
Format : AVC
Format/Info : Advanced Video Codec
Format profile : High@L3.0
Format settings, CABAC : Yes
Format settings, ReFrames : 4 frames
Codec ID : avc1
Codec ID/Info : Advanced Video Coding
Duration : 1h 52mn
Bit rate mode : Variable
Bit rate : 1 731 Kbps
Width : 720 pixels
Height : 544 pixels
Display aspect ratio : 4:3
Frame rate mode : Variable
Frame rate : 23.976 fps
Minimum frame rate : 23.968 fps
Maximum frame rate : 23.981 fps
Color space : YUV
Chroma subsampling : 4:2:0
Bit depth : 8 bits
Scan type : Progressive
Bits/(Pixel*Frame) : 0.184
Stream size : 1.36 GiB (91%)
Writing library : x264 core 120
Encoding settings : cabac=1 / ref=3 / deblock=1:0:0 / analyse=0x3:0x113 / me=hex / subme=7 / psy=1 / psy_rd=1.00:0.00 / mixed_ref=1 / me_range=16 / chroma_me=1 / trellis=1 / 8x8dct=1 / cqm=0 / deadzone=21,11 / fast_pskip=1 / chroma_qp_offset=-2 / threads=3 / sliced_threads=0 / nr=0 / decimate=1 / interlaced=0 / bluray_compat=0 / constrained_intra=0 / bframes=3 / b_pyramid=2 / b_adapt=2 / b_bias=0 / direct=1 / weightb=1 / open_gop=0 / weightp=2 / keyint=240 / keyint_min=24 / scenecut=40 / intra_refresh=0 / rc_lookahead=50 / rc=crf / mbtree=1 / crf=20.0 / qcomp=0.60 / qpmin=3 / qpmax=69 / qpstep=4 / ip_ratio=1.40 / aq=1:1.00
Encoded date : UTC 2013-04-11 20:01:50
Tagged date : UTC 2013-04-11 22:20:46
Color primaries : BT.601-6 525, BT.1358 525, BT.1700 NTSC, SMPTE 170M
Transfer characteristics : BT.709-5, BT.1361
Matrix coefficients : BT.601-6 525, BT.1358 525, BT.1700 NTSC, SMPTE 170M

Audio
ID : 2
Format : AAC
Format/Info : Advanced Audio Codec
Format profile : LC
Codec ID : 40
Duration : 1h 52mn
Bit rate mode : Variable
Bit rate : 160 Kbps
Maximum bit rate : 365 Kbps
Channel(s) : 2 channels
Channel positions : Front: L R
Sampling rate : 48.0 KHz
Compression mode : Lossy
Delay relative to video : -83ms
Stream size : 129 MiB (8%)
Language : English
Encoded date : UTC 2013-04-11 20:01:50
Tagged date : UTC 2013-04-11 22:20:45

Text #1
ID : 3
Format : mp4s
Codec ID : E0
Duration : 1h 48mn
Bit rate mode : Variable
Bit rate : 2 498 bps
Maximum bit rate : 4 282 Mbps
Delay relative to video : -83ms
Stream size : 1.95 MiB (0%)
Language : Portuguese
Encoded date : UTC 2013-04-11 20:01:50
Tagged date : UTC 2013-04-11 22:18:16

Text #2
ID : 4
Format : mp4s
Codec ID : E0
Duration : 1h 48mn
Bit rate mode : Variable
Bit rate : 2 425 bps
Maximum bit rate : 4 282 Mbps
Delay relative to video : -83ms
Stream size : 1.89 MiB (0%)
Language : Spanish
Encoded date : UTC 2013-04-11 20:01:50
Tagged date : UTC 2013-04-11 22:18:16

Text #3
ID : 5
Format : mp4s
Codec ID : E0
Duration : 1h 48mn
Bit rate mode : Variable
Bit rate : 2 638 bps
Maximum bit rate : 4 282 Mbps
Delay relative to video : -83ms
Stream size : 2.06 MiB (0%)
Language : English
Encoded date : UTC 2013-04-11 20:01:50
Tagged date : UTC 2013-04-11 22:18:16

Text #4
ID : 6
Format : Apple text
Codec ID : text
Duration : 1h 52mn
Bit rate mode : Variable
Bit rate : 1 bps
Stream size : 783 Bytes (0%)
Encoded date : UTC 2013-04-11 20:01:50
Tagged date : UTC 2013-04-11 22:20:46